<svg width="66" height="65" viewBox="0 0 66 65" fill="none" xmlns="http://www.w3.org/2000/svg">
<path d="M62.7917 40.2114C60.9341 39.5878 58.8965 39.4783 56.9346 39.9389C57.1105 39.022 57.2331 38.0909 57.3031 37.1567C58.8814 36.3664 60.2536 35.1999 61.2447 33.7648C62.7859 31.5378 63.2395 28.932 62.4892 26.6155C62.3911 26.3127 62.0814 26.132 61.7694 26.1958C59.7926 26.6002 57.9636 27.568 56.5292 28.9335C56.2659 27.9589 55.9415 27.0027 55.5621 26.076C57.401 21.9795 56.5077 17.1442 53.0917 14.8128C52.8287 14.6332 52.4727 14.6803 52.2654 14.9219C51.4314 15.8932 50.785 17.0074 50.3455 18.191C49.463 17.2975 48.5095 16.4703 47.4991 15.7214C46.9579 10.0483 42.0659 5.83053 37.2142 6.71128C36.9014 6.76816 36.681 7.05078 36.7024 7.36816C37.0781 12.9597 41.7956 17.4135 46.7405 16.7147C47.8909 17.5662 48.9634 18.5245 49.9359 19.5699C49.082 23.3618 50.3966 26.9527 53.0855 28.7878C53.35 28.9683 53.7055 28.9188 53.9116 28.679C54.2274 28.3118 54.5152 27.9234 54.7767 27.5193C55.0711 28.3439 55.3196 29.1888 55.5194 30.0458C53.7772 32.2732 53.0915 35.08 53.9284 37.66C54.027 37.9642 54.3385 38.1433 54.648 38.0794C55.1082 37.9854 55.5595 37.8589 56.0005 37.7063C55.9084 38.6004 55.7635 39.4884 55.5697 40.3599C52.9527 41.3729 50.8496 43.454 50.2581 46.1964C50.191 46.5077 50.3685 46.8195 50.6704 46.9208C51.337 47.1444 52.0232 47.3 52.7216 47.3888C52.1926 48.2508 51.6056 49.0797 50.9686 49.8655C47.1561 48.9058 43.4981 50.1824 41.614 52.8474C41.4301 53.1074 41.4712 53.4642 41.7094 53.6755C42.5179 54.3937 43.4382 54.9815 44.4204 55.4247C37.3581 59.4428 28.6415 59.4425 21.5799 55.4247C22.5619 54.9815 23.4822 54.3937 24.2907 53.6755C24.5286 53.4642 24.5697 53.108 24.3865 52.848C22.5179 50.1987 18.8709 48.8997 15.0319 49.8658C14.3947 49.08 13.8079 48.2509 13.2786 47.3889C13.9769 47.3002 14.6631 47.1445 15.3299 46.9209C15.6317 46.8197 15.8092 46.5077 15.7421 46.1965C15.1487 43.4468 13.0415 41.3702 10.4302 40.3598C10.2364 39.4885 10.0916 38.6005 9.99962 37.7062C10.4406 37.859 10.892 37.9855 11.3521 38.0797C11.6624 38.1435 11.9734 37.9638 12.0719 37.6602C12.9185 35.0495 12.2051 32.2529 10.4811 30.0453C10.6806 29.1888 10.929 28.344 11.2235 27.5194C11.4849 27.9235 11.7729 28.3119 12.0886 28.6792C12.295 28.9192 12.6506 28.9682 12.9147 28.7879C15.612 26.947 16.9147 23.3495 16.0649 19.5695C17.0375 18.5239 18.1104 17.5653 19.2609 16.7139C24.2251 17.4148 28.9206 12.9407 29.3019 7.36816C29.3236 7.05053 29.1031 6.76728 28.7899 6.71053C23.934 5.82991 19.0424 10.0592 18.502 15.7207C17.4917 16.4697 16.5381 17.2968 15.6554 18.1905C15.2157 17.0062 14.5691 15.892 13.7344 14.9218C13.5267 14.6804 13.1707 14.6339 12.9079 14.8134C9.47987 17.1569 8.61062 22.004 10.438 26.0764C10.0585 27.003 9.73437 27.9588 9.47112 28.9327C8.03787 27.5678 6.20862 26.6004 4.23049 26.1962C3.91899 26.132 3.60887 26.3132 3.51074 26.6159C2.21524 30.6164 4.56687 35.0859 8.69687 37.156C8.76687 38.0908 8.88949 39.0222 9.06537 39.9388C7.06137 39.4682 5.02262 39.6034 3.20862 40.2118C2.90674 40.313 2.72924 40.6249 2.79637 40.9362C3.64199 44.856 7.56887 47.4638 11.8762 47.4764C12.4371 48.448 13.0672 49.3839 13.7575 50.2709C12.5732 50.7308 11.4639 51.3989 10.5094 52.2469C10.2715 52.4582 10.2304 52.8144 10.4136 53.0744C12.4921 56.0214 16.44 57.0052 20.0701 55.9779C27.9597 60.924 38.0355 60.9272 45.9299 55.9779C49.5591 57.0043 53.5077 56.0219 55.5866 53.0744C55.77 52.8144 55.7289 52.458 55.4909 52.2469C54.536 51.3989 53.4266 50.7305 52.2427 50.2707C52.933 49.3837 53.5631 48.4479 54.1239 47.4764C58.4284 47.4638 62.3624 44.8607 63.2039 40.9353C63.2705 40.624 63.0931 40.3127 62.7917 40.2114ZM40.938 13.5582C39.3414 12.1035 38.2921 10.0547 38.0071 7.86641C41.7921 7.55366 45.619 10.8932 46.2216 15.5164C44.3807 15.6678 42.4741 14.9598 40.938 13.5582ZM53.3314 27.4087C51.916 26.2277 51.0529 24.4017 50.9405 22.3094C50.8255 20.1665 51.5091 17.9613 52.8462 16.1922C54.2615 17.3734 55.1245 19.2003 55.2369 21.294C55.3527 23.4527 54.6627 25.6495 53.3314 27.4087ZM56.2006 31.225C57.4311 29.447 59.3217 28.1319 61.4506 27.5557C61.8469 29.3559 61.4105 31.3288 60.2166 33.0539C58.9899 34.8302 57.0991 36.1442 54.9669 36.72C54.5709 34.9225 55.0074 32.9507 56.2006 31.225ZM22.7141 9.82341C24.2499 8.42216 26.1552 7.71453 27.9965 7.86541C27.7089 10.0548 26.6589 12.1037 25.0629 13.5574C23.5267 14.959 21.621 15.6669 19.7797 15.5154C20.065 13.3285 21.1154 11.2798 22.7141 9.82341ZM10.7659 21.2943C10.8782 19.201 11.7404 17.3743 13.1544 16.1924C14.5025 17.9737 15.1736 20.1825 15.0595 22.3094C14.947 24.4019 14.0841 26.2278 12.6685 27.4088C11.3369 25.6492 10.6477 23.4523 10.7659 21.2943ZM5.78337 33.054C4.59049 31.327 4.15412 29.354 4.54949 27.5557C6.68062 28.1317 8.57124 29.4467 9.79974 31.2254C10.9939 32.9487 11.4301 34.9203 11.0332 36.7199C8.90287 36.1438 7.01224 34.8299 5.78337 33.054ZM4.16649 41.2278C8.44112 40.0845 13.155 42.0959 14.3715 45.9045C10.052 47.0604 5.37249 45.0035 4.16649 41.2278ZM11.7889 52.8068C15.3439 50.031 20.4439 50.1353 23.0112 53.1155C21.2801 54.467 14.3527 55.7834 11.7889 52.8068ZM42.9894 53.1159C45.5665 50.1293 50.6594 50.0335 54.2114 52.8068C51.6442 55.7869 46.5462 55.8929 42.9894 53.1159ZM51.6284 45.9045C52.8071 42.2145 57.4156 40.0445 61.8342 41.2278C60.6572 44.9273 56.0384 47.084 51.6284 45.9045Z" fill="#EAAB00"/>
<path d="M8.625 54.6875C6.90188 54.6875 5.5 56.0894 5.5 57.8125C5.5 59.5356 6.90188 60.9375 8.625 60.9375C10.3481 60.9375 11.75 59.5356 11.75 57.8125C11.75 56.0894 10.3481 54.6875 8.625 54.6875ZM8.625 59.6875C7.59113 59.6875 6.75 58.8465 6.75 57.8125C6.75 56.7785 7.59113 55.9375 8.625 55.9375C9.65887 55.9375 10.5 56.7785 10.5 57.8125C10.5 58.8465 9.65887 59.6875 8.625 59.6875Z" fill="#EAAB00"/>
<path d="M57.0625 13.75C59.4749 13.75 61.4375 11.7874 61.4375 9.375C61.4375 6.96263 59.4749 5 57.0625 5C54.6501 5 52.6875 6.96263 52.6875 9.375C52.6875 11.7874 54.6501 13.75 57.0625 13.75ZM57.0625 6.25C58.7856 6.25 60.1875 7.65188 60.1875 9.375C60.1875 11.0981 58.7856 12.5 57.0625 12.5C55.3394 12.5 53.9375 11.0981 53.9375 9.375C53.9375 7.65188 55.3394 6.25 57.0625 6.25Z" fill="#EAAB00"/>
<path d="M60.1875 20.3125C60.7053 20.3125 61.125 19.8928 61.125 19.375C61.125 18.8572 60.7053 18.4375 60.1875 18.4375C59.6697 18.4375 59.25 18.8572 59.25 19.375C59.25 19.8928 59.6697 20.3125 60.1875 20.3125Z" fill="#EAAB00"/>
<path d="M48.3125 7.8125C48.8303 7.8125 49.25 7.39277 49.25 6.875C49.25 6.35723 48.8303 5.9375 48.3125 5.9375C47.7947 5.9375 47.375 6.35723 47.375 6.875C47.375 7.39277 47.7947 7.8125 48.3125 7.8125Z" fill="#EAAB00"/>
<path d="M17.6875 6.5625C18.2053 6.5625 18.625 6.14277 18.625 5.625C18.625 5.10723 18.2053 4.6875 17.6875 4.6875C17.1697 4.6875 16.75 5.10723 16.75 5.625C16.75 6.14277 17.1697 6.5625 17.6875 6.5625Z" fill="#EAAB00"/>
<path d="M7.0625 16.5625C7.58027 16.5625 8 16.1428 8 15.625C8 15.1072 7.58027 14.6875 7.0625 14.6875C6.54473 14.6875 6.125 15.1072 6.125 15.625C6.125 16.1428 6.54473 16.5625 7.0625 16.5625Z" fill="#EAAB00"/>
<path d="M16.4375 59.6875C16.9553 59.6875 17.375 59.2678 17.375 58.75C17.375 58.2322 16.9553 57.8125 16.4375 57.8125C15.9197 57.8125 15.5 58.2322 15.5 58.75C15.5 59.2678 15.9197 59.6875 16.4375 59.6875Z" fill="#EAAB00"/>
<path d="M59.5625 52.1875C60.0803 52.1875 60.5 51.7678 60.5 51.25C60.5 50.7322 60.0803 50.3125 59.5625 50.3125C59.0447 50.3125 58.625 50.7322 58.625 51.25C58.625 51.7678 59.0447 52.1875 59.5625 52.1875Z" fill="#EAAB00"/>
<path d="M51.4375 59.6875C51.9553 59.6875 52.375 59.2678 52.375 58.75C52.375 58.2322 51.9553 57.8125 51.4375 57.8125C50.9197 57.8125 50.5 58.2322 50.5 58.75C50.5 59.2678 50.9197 59.6875 51.4375 59.6875Z" fill="#EAAB00"/>
<path d="M18 34.0625C18 42.3335 24.729 49.0625 33 49.0625C41.271 49.0625 48 42.3335 48 34.0625C48 25.7915 41.271 19.0625 33 19.0625C24.729 19.0625 18 25.7915 18 34.0625ZM33 20.3125C40.5817 20.3125 46.75 26.4808 46.75 34.0625C46.75 41.6442 40.5817 47.8125 33 47.8125C25.4183 47.8125 19.25 41.6442 19.25 34.0625C19.25 26.4808 25.4183 20.3125 33 20.3125Z" fill="#EAAB00"/>
<path d="M25.045 42.0177C25.2891 42.2618 25.6847 42.2618 25.9289 42.0177C26.173 41.7737 26.173 41.3779 25.9289 41.1339C22.0299 37.2348 22.0299 30.8907 25.9289 26.9917C26.173 26.7476 26.173 26.3518 25.9289 26.1078C25.6847 25.8638 25.2891 25.8638 25.045 26.1078C20.6587 30.4941 20.6587 37.6313 25.045 42.0177Z" fill="#EAAB00"/>
<path d="M40.0711 42.0177C40.315 42.2618 40.711 42.2618 40.9549 42.0177C45.3413 37.6313 45.3413 30.4942 40.9549 26.1078C40.711 25.8638 40.315 25.8638 40.0711 26.1078C39.827 26.3519 39.827 26.7477 40.0711 26.9917C43.97 30.8906 43.97 37.2347 40.0711 41.1339C39.827 41.3779 39.827 41.7737 40.0711 42.0177Z" fill="#EAAB00"/>
<path d="M28 31.25H31.125V41.875C31.125 42.2203 31.4048 42.5 31.75 42.5H35.5C35.8452 42.5 36.125 42.2203 36.125 41.875V26.875C36.125 26.5299 35.8452 26.25 35.5 26.25H29.25C28.981 26.25 28.7421 26.4221 28.657 26.6774L27.407 30.4274C27.2725 30.8316 27.5735 31.25 28 31.25ZM29.7005 27.5H34.875V41.25H32.375V30.625C32.375 30.2799 32.0951 30 31.75 30H28.8671L29.7005 27.5Z" fill="#EAAB00"/>
</svg>
