<svg width="66" height="65" viewBox="0 0 66 65" fill="none" xmlns="http://www.w3.org/2000/svg">
<g clip-path="url(#clip0_132_6136)">
<mask id="mask0_132_6136" style="mask-type:luminance" maskUnits="userSpaceOnUse" x="0" y="0" width="66" height="66">
<path d="M0.499802 0.000984192H65.4998V65.001H0.499802V0.000984192Z" fill="white"/>
</mask>
<g mask="url(#mask0_132_6136)">
<path d="M16.6493 7.74182C14.5258 8.93315 12.5662 10.3819 10.815 12.0481C5.50015 17.1017 2.09476 24.1463 1.79185 31.9864C1.77737 32.3648 1.76937 32.7463 1.76937 33.1295C1.76937 49.1958 14.7944 62.2207 30.8607 62.2207C37.8172 62.2207 44.2047 59.779 49.2101 55.7051C52.5929 52.9539 55.3442 49.4572 57.2168 45.4651C58.2621 43.2349 59.0332 40.8508 59.4854 38.3545C59.7933 36.66 59.9535 34.914 59.9535 33.1295C59.9535 18.8106 49.6076 6.90647 35.9815 4.48713C34.319 4.19221 32.6083 4.03822 30.8607 4.03822C29.5928 4.03822 28.3442 4.12087 27.119 4.27816" stroke="#B6BF00" stroke-width="2.53906" stroke-miterlimit="10" stroke-linecap="round" stroke-linejoin="round"/>
<path d="M29.8458 38.1654V46.8134C29.8458 47.3969 29.6134 47.9565 29.2013 48.3686L19.0654 58.5044C18.0794 59.4905 16.3928 58.7915 16.3928 57.3965V47.4467C16.3928 46.8631 16.1619 46.3036 15.7498 45.8915L11.9405 42.0838C11.5285 41.6717 11.2976 41.1121 11.2976 40.5286V34.186C11.2976 32.9724 10.3115 31.9864 9.09632 31.9864H1.79182C2.09486 24.1463 5.50012 17.1017 10.815 12.0481V20.135C10.815 20.7186 11.0459 21.2781 11.4596 21.6902L18.097 28.3293C18.5107 28.7414 18.7416 29.3009 18.7416 29.8845V33.7643C18.7416 34.9796 19.7276 35.9657 20.9428 35.9657H27.6461C28.8614 35.9657 29.8458 36.9501 29.8458 38.1654Z" stroke="#B6BF00" stroke-width="2.53906" stroke-miterlimit="10" stroke-linecap="round" stroke-linejoin="round"/>
<path d="M59.9536 33.1294C59.9536 34.9139 59.7933 36.6599 59.4854 38.3546C58.6598 38.7041 57.6625 38.5469 56.9828 37.8655L53.9445 34.8273C53.5164 34.3992 52.9361 34.1588 52.3317 34.1588H49.319C48.059 34.1588 47.0376 33.1374 47.0376 31.8788V28.7398C47.0376 28.1337 46.7972 27.5533 46.3708 27.1268L39.2651 20.0195C38.837 19.5931 38.5964 19.0126 38.5964 18.4067V15.1889C38.5964 14.5845 38.837 14.0041 39.2651 13.576C39.7108 13.1319 39.9319 12.5483 39.9319 11.963C39.9319 11.3796 39.7108 10.796 39.2651 10.3502L36.6501 7.73538C36.222 7.30881 35.9815 6.72851 35.9815 6.12244V4.48715C49.6077 6.90637 59.9536 18.8106 59.9536 33.1294Z" stroke="#B6BF00" stroke-width="2.53906" stroke-miterlimit="10" stroke-linecap="round" stroke-linejoin="round"/>
<path d="M57.2168 45.4649C55.3442 49.4571 52.5929 52.9539 49.2101 55.7051L45.8095 52.3045C45.5145 52.0079 45.2837 51.66 45.1267 51.2815C44.9694 50.9017 44.8861 50.4928 44.8861 50.0743C44.8861 49.2375 45.2179 48.4342 45.8095 47.8426L47.57 46.0822C48.1616 45.4907 48.9648 45.1587 49.8017 45.1587H55.8604C56.335 45.1587 56.7983 45.2661 57.2168 45.4649Z" stroke="#B6BF00" stroke-width="2.53906" stroke-miterlimit="10" stroke-linecap="round" stroke-linejoin="round"/>
<path d="M59.9003 12.292L60.5287 10.9034C60.9516 9.93096 61.2823 8.64226 61.2823 8.64226C61.6703 7.1531 61.7138 5.2761 60.2674 3.8296C55.2481 -1.18962 39.7866 12.6971 26.067 26.4168C12.3473 40.1364 -1.53958 55.5979 3.47976 60.6171C4.8944 62.0318 6.72075 62.0212 8.19341 61.6571C8.19341 61.6571 10.0316 60.9802 10.9503 60.4697" stroke="#B6BF00" stroke-width="2.53906" stroke-miterlimit="10" stroke-linecap="round" stroke-linejoin="round"/>
<path d="M57.3427 8.52479L59.9003 12.292L64.2303 10.1241" stroke="#B6BF00" stroke-width="2.53906" stroke-miterlimit="10" stroke-linecap="round" stroke-linejoin="round"/>
</g>
</g>
<defs>
<clipPath id="clip0_132_6136">
<rect width="65" height="65" fill="white" transform="translate(0.499992)"/>
</clipPath>
</defs>
</svg>
