<svg width="66" height="65" viewBox="0 0 66 65" fill="none" xmlns="http://www.w3.org/2000/svg">
<path d="M58.7535 57.937L53.4723 52.6395C54.7155 50.0412 54.9999 47.087 54.2753 44.2992C53.5507 41.5115 51.8636 39.0697 49.5125 37.4057C47.1613 35.7418 44.2975 34.9627 41.4275 35.2064C38.5574 35.45 35.8659 36.7007 33.8289 38.7372C31.7919 40.7737 30.5406 43.4649 30.2963 46.3349C30.052 49.2049 30.8303 52.0689 32.4938 54.4204C34.1572 56.772 36.5985 58.4596 39.3861 59.1849C42.1737 59.9102 45.128 59.6264 47.7266 58.3838L53.0227 63.6651C53.3991 64.0417 53.846 64.3406 54.3378 64.5445C54.8297 64.7484 55.3569 64.8535 55.8894 64.8537C56.4219 64.8539 56.9492 64.7492 57.4412 64.5456C57.9332 64.342 58.3803 64.0435 58.7569 63.6671C59.1336 63.2907 59.4324 62.8439 59.6363 62.352C59.8403 61.8601 59.9454 61.3329 59.9455 60.8004C59.9457 60.268 59.841 59.7407 59.6374 59.2487C59.4339 58.7566 59.1353 58.3095 58.759 57.9329L58.7535 57.937ZM35.776 54.0993C34.4505 52.7735 33.5477 51.0845 33.1821 49.2458C32.8164 47.407 33.0042 45.5011 33.7217 43.7691C34.4391 42.037 35.6541 40.5567 37.2129 39.5151C38.7717 38.4736 40.6044 37.9177 42.4792 37.9177C44.3539 37.9177 46.1866 38.4736 47.7454 39.5151C49.3042 40.5567 50.5192 42.037 51.2367 43.7691C51.9542 45.5011 52.1419 47.407 51.7763 49.2458C51.4106 51.0845 50.5079 52.7735 49.1823 54.0993C47.4033 55.8748 44.9926 56.8721 42.4792 56.8721C39.9657 56.8721 37.555 55.8748 35.776 54.0993ZM56.8333 61.7503C56.5798 62.0009 56.2378 62.1414 55.8814 62.1414C55.5249 62.1414 55.1829 62.0009 54.9294 61.7503L50.0801 56.9119C50.7915 56.3517 51.4342 55.7094 51.9949 54.9984L56.8333 59.8545C56.9589 59.9792 57.0585 60.1275 57.1265 60.2909C57.1945 60.4543 57.2295 60.6295 57.2295 60.8064C57.2295 60.9834 57.1945 61.1586 57.1265 61.322C57.0585 61.4854 56.9589 61.6337 56.8333 61.7584V61.7503Z" fill="#00A6AA"/>
<path d="M34.3542 59.5835H16.75C15.6725 59.5835 14.6392 59.1555 13.8774 58.3937C13.1155 57.6318 12.6875 56.5985 12.6875 55.521V9.47936C12.6875 8.40192 13.1155 7.3686 13.8774 6.60674C14.6392 5.84487 15.6725 5.41686 16.75 5.41686H40.2854C40.5677 5.41759 40.8491 5.448 41.125 5.50759V13.5419C41.125 14.6193 41.553 15.6526 42.3149 16.4145C43.0767 17.1763 44.1101 17.6044 45.1875 17.6044H53.2082C53.2751 17.8935 53.31 18.1891 53.3125 18.4859V36.5627C53.3125 36.9218 53.4552 37.2663 53.7091 37.5202C53.9631 37.7742 54.3075 37.9169 54.6667 37.9169C55.0258 37.9169 55.3702 37.7742 55.6242 37.5202C55.8782 37.2663 56.0208 36.9218 56.0208 36.5627V18.4859C56.0227 17.5992 55.8494 16.7209 55.5111 15.9013C55.1727 15.0817 54.6759 14.337 54.0492 13.7098L45.0846 4.70321C44.457 4.06891 43.7095 3.56587 42.8855 3.22341C42.0616 2.88095 41.1777 2.70592 40.2854 2.70852H16.75C14.9549 2.71068 13.234 3.42472 11.9647 4.69403C10.6954 5.96334 9.98131 7.68428 9.97916 9.47936V55.521C9.98131 57.3161 10.6954 59.037 11.9647 60.3064C13.234 61.5757 14.9549 62.2897 16.75 62.2919H34.3542C34.7133 62.2919 35.0577 62.1492 35.3117 61.8952C35.5657 61.6413 35.7083 61.2968 35.7083 60.9377C35.7083 60.5785 35.5657 60.2341 35.3117 59.9802C35.0577 59.7262 34.7133 59.5835 34.3542 59.5835ZM51.4085 14.896H45.1875C44.8283 14.896 44.4839 14.7534 44.2299 14.4994C43.976 14.2454 43.8333 13.901 43.8333 13.5419V7.28561L51.4085 14.896Z" fill="#00A6AA"/>
<path d="M19.4583 17.6043H34.3542C34.7133 17.6043 35.0577 17.4617 35.3117 17.2077C35.5657 16.9537 35.7083 16.6093 35.7083 16.2502C35.7083 15.891 35.5657 15.5466 35.3117 15.2926C35.0577 15.0387 34.7133 14.896 34.3542 14.896H19.4583C19.0992 14.896 18.7547 15.0387 18.5008 15.2926C18.2468 15.5466 18.1042 15.891 18.1042 16.2502C18.1042 16.6093 18.2468 16.9537 18.5008 17.2077C18.7547 17.4617 19.0992 17.6043 19.4583 17.6043Z" fill="#00A6AA"/>
<path d="M46.5417 23.021H23.5208C23.1617 23.021 22.8172 23.1637 22.5633 23.4176C22.3093 23.6716 22.1667 24.016 22.1667 24.3752C22.1667 24.7343 22.3093 25.0787 22.5633 25.3327C22.8172 25.5867 23.1617 25.7293 23.5208 25.7293H46.5417C46.9008 25.7293 47.2452 25.5867 47.4992 25.3327C47.7532 25.0787 47.8958 24.7343 47.8958 24.3752C47.8958 24.016 47.7532 23.6716 47.4992 23.4176C47.2452 23.1637 46.9008 23.021 46.5417 23.021Z" fill="#00A6AA"/>
<path d="M47.8958 31.1462C47.8958 30.787 47.7532 30.4426 47.4992 30.1886C47.2452 29.9347 46.9008 29.792 46.5417 29.792H19.4583C19.0992 29.792 18.7547 29.9347 18.5008 30.1886C18.2468 30.4426 18.1042 30.787 18.1042 31.1462C18.1042 31.5053 18.2468 31.8497 18.5008 32.1037C18.7547 32.3577 19.0992 32.5003 19.4583 32.5003H46.5417C46.9008 32.5003 47.2452 32.3577 47.4992 32.1037C47.7532 31.8497 47.8958 31.5053 47.8958 31.1462Z" fill="#00A6AA"/>
<path d="M28.9375 37.9167C28.9375 37.5575 28.7948 37.2131 28.5409 36.9591C28.2869 36.7052 27.9425 36.5625 27.5833 36.5625H19.4583C19.0992 36.5625 18.7547 36.7052 18.5008 36.9591C18.2468 37.2131 18.1042 37.5575 18.1042 37.9167C18.1042 38.2758 18.2468 38.6203 18.5008 38.8742C18.7547 39.1282 19.0992 39.2708 19.4583 39.2708H27.5833C27.9425 39.2708 28.2869 39.1282 28.5409 38.8742C28.7948 38.6203 28.9375 38.2758 28.9375 37.9167Z" fill="#00A6AA"/>
<path d="M19.4583 46.0418H24.875C25.2341 46.0418 25.5786 45.8992 25.8325 45.6452C26.0865 45.3912 26.2292 45.0468 26.2292 44.6877C26.2292 44.3285 26.0865 43.9841 25.8325 43.7301C25.5786 43.4762 25.2341 43.3335 24.875 43.3335H19.4583C19.0992 43.3335 18.7547 43.4762 18.5008 43.7301C18.2468 43.9841 18.1042 44.3285 18.1042 44.6877C18.1042 45.0468 18.2468 45.3912 18.5008 45.6452C18.7547 45.8992 19.0992 46.0418 19.4583 46.0418Z" fill="#00A6AA"/>
<path d="M19.4583 52.8128H26.2292C26.5883 52.8128 26.9327 52.6702 27.1867 52.4162C27.4407 52.1622 27.5833 51.8178 27.5833 51.4587C27.5833 51.0995 27.4407 50.7551 27.1867 50.5011C26.9327 50.2472 26.5883 50.1045 26.2292 50.1045H19.4583C19.0992 50.1045 18.7547 50.2472 18.5008 50.5011C18.2468 50.7551 18.1042 51.0995 18.1042 51.4587C18.1042 51.8178 18.2468 52.1622 18.5008 52.4162C18.7547 52.6702 19.0992 52.8128 19.4583 52.8128Z" fill="#00A6AA"/>
<path d="M42.4791 51.4587C41.4017 51.4587 40.3684 51.0306 39.6065 50.2688C38.8447 49.5069 38.4166 48.4736 38.4166 47.3962C38.4166 47.037 38.274 46.6926 38.02 46.4386C37.7661 46.1847 37.4216 46.042 37.0625 46.042C36.7033 46.042 36.3589 46.1847 36.1049 46.4386C35.851 46.6926 35.7083 47.037 35.7083 47.3962C35.7105 49.1912 36.4245 50.9122 37.6938 52.1815C38.9631 53.4508 40.6841 54.1648 42.4791 54.167C42.8383 54.167 43.1827 54.0243 43.4367 53.7704C43.6906 53.5164 43.8333 53.172 43.8333 52.8128C43.8333 52.4537 43.6906 52.1092 43.4367 51.8553C43.1827 51.6013 42.8383 51.4587 42.4791 51.4587Z" fill="#00A6AA"/>
</svg>
