<svg width="66" height="65" viewBox="0 0 66 65" fill="none" xmlns="http://www.w3.org/2000/svg">
<path d="M61.4375 47.7344V36.5625H59.4062V47.7344H53.3125V43.6719H51.2812V47.7344H45.1875V12.1875H59.4062V34.5312H61.4375V11.1719C61.4375 10.9025 61.3305 10.6442 61.14 10.4537C60.9496 10.2633 60.6912 10.1562 60.4219 10.1562H59.4062V7.10938C59.4062 6.84001 59.2992 6.58169 59.1088 6.39122C58.9183 6.20075 58.66 6.09375 58.3906 6.09375H53.3125V2.03125H51.2812V6.09375H46.2031C45.9338 6.09375 45.6754 6.20075 45.485 6.39122C45.2945 6.58169 45.1875 6.84001 45.1875 7.10938V10.1562H44.1719C43.9025 10.1562 43.6442 10.2633 43.4537 10.4537C43.2633 10.6442 43.1562 10.9025 43.1562 11.1719V17.2656H38.0781C37.9448 17.2656 37.8127 17.2919 37.6895 17.3429C37.5662 17.394 37.4543 17.4688 37.36 17.5631L29.235 25.6881C29.1407 25.7824 29.0659 25.8944 29.0148 26.0176C28.9638 26.1408 28.9375 26.2729 28.9375 26.4062V32.323L23.5047 27.6664C23.3206 27.5086 23.0862 27.4219 22.8438 27.4219C22.6013 27.4219 22.3669 27.5086 22.1828 27.6664L15.0734 33.7601C14.9622 33.8555 14.8729 33.9738 14.8117 34.1069C14.7505 34.24 14.7188 34.3847 14.7188 34.5312V38.8312L11.1788 36.7072C11.021 36.6125 10.8403 36.5625 10.6562 36.5625C10.4722 36.5625 10.2915 36.6125 10.1337 36.7072L5.05556 39.7541C4.90518 39.8443 4.78073 39.972 4.69432 40.1246C4.60792 40.2772 4.5625 40.4496 4.5625 40.625V47.7344H2.53125V49.7656H7.89218C10.693 53.8372 14.4421 57.1666 18.8162 59.4668C23.1902 61.7669 28.058 62.9688 33 62.9688C37.942 62.9688 42.8098 61.7669 47.1838 59.4668C51.5579 57.1666 55.307 53.8372 58.1078 49.7656H63.4688V47.7344H61.4375ZM47.2188 8.125H57.375V10.1562H47.2188V8.125ZM44.2074 49.7656C43.3156 51.5412 42.2779 53.2398 41.1051 54.8438H24.8948C23.7221 53.2398 22.6844 51.5412 21.7926 49.7656H44.2074ZM30.9688 26.8269L38.4988 19.2969H43.1562V47.7344H38.0781V43.6719H36.0469V47.7344H30.9688V26.8269ZM16.75 34.9984L22.8438 29.7752L28.9375 34.9984V47.7344H23.8594V43.6719H21.8281V47.7344H16.75V34.9984ZM6.59375 41.2001L10.6562 38.7626L14.7188 41.2001V47.7344H11.6719V43.6719H9.64062V47.7344H6.59375V41.2001ZM10.4011 49.7656H19.5341C20.3628 51.5294 21.3255 53.2271 22.4136 54.8438H15.4C13.5278 53.3668 11.8484 51.6608 10.4011 49.7656ZM23.8829 56.875C24.8091 58.0698 25.8093 59.2053 26.8777 60.2748C23.8654 59.6136 20.9812 58.4652 18.3388 56.875H23.8829ZM30.491 60.8276C29.0513 59.6255 27.7163 58.3032 26.5005 56.875H39.4995C38.2837 58.3032 36.9487 59.6255 35.509 60.8276C34.6794 60.9005 33.8431 60.9371 33 60.9375C32.1576 60.9375 31.3213 60.9009 30.491 60.8276ZM42.1172 56.875H47.6612C45.0188 58.4652 42.1346 59.6136 39.1224 60.2748C40.1907 59.2053 41.191 58.0698 42.1172 56.875ZM50.6 54.8438H43.5864C44.6745 53.2271 45.6372 51.5294 46.4659 49.7656H55.5989C54.1516 51.6608 52.4722 53.3668 50.6 54.8438Z" fill="#988F86"/>
<path d="M18.7812 36.5625H20.8125V41.6406H18.7812V36.5625Z" fill="#988F86"/>
<path d="M24.875 36.5625H26.9062V41.6406H24.875V36.5625Z" fill="#988F86"/>
<path d="M33 36.5625H35.0312V41.6406H33V36.5625Z" fill="#988F86"/>
<path d="M39.0938 36.5625H41.125V41.6406H39.0938V36.5625Z" fill="#988F86"/>
<path d="M33 29.4531H35.0312V34.5312H33V29.4531Z" fill="#988F86"/>
<path d="M39.0938 29.4531H41.125V34.5312H39.0938V29.4531Z" fill="#988F86"/>
<path d="M47.2188 29.4531H49.25V34.5312H47.2188V29.4531Z" fill="#988F86"/>
<path d="M51.2812 29.4531H53.3125V34.5312H51.2812V29.4531Z" fill="#988F86"/>
<path d="M47.2188 22.3438H49.25V27.4219H47.2188V22.3438Z" fill="#988F86"/>
<path d="M51.2812 22.3438H53.3125V27.4219H51.2812V22.3438Z" fill="#988F86"/>
<path d="M47.2188 15.2344H49.25V20.3125H47.2188V15.2344Z" fill="#988F86"/>
<path d="M51.2812 15.2344H53.3125V20.3125H51.2812V15.2344Z" fill="#988F86"/>
<path d="M55.3438 29.4531H57.375V34.5312H55.3438V29.4531Z" fill="#988F86"/>
<path d="M47.2188 36.5625H49.25V41.6406H47.2188V36.5625Z" fill="#988F86"/>
<path d="M51.2812 36.5625H53.3125V41.6406H51.2812V36.5625Z" fill="#988F86"/>
<path d="M55.3438 36.5625H57.375V41.6406H55.3438V36.5625Z" fill="#988F86"/>
<path d="M55.3438 22.3438H57.375V27.4219H55.3438V22.3438Z" fill="#988F86"/>
<path d="M55.3438 15.2344H57.375V20.3125H55.3438V15.2344Z" fill="#988F86"/>
<path d="M39.0938 22.3438H41.125V27.4219H39.0938V22.3438Z" fill="#988F86"/>
<path d="M3.14209 34.4471C3.32359 34.526 3.52417 34.5501 3.71919 34.5165C3.9142 34.4829 4.09517 34.3931 4.23985 34.2581L18.8193 20.6507L24.2248 25.1553C24.4249 25.322 24.6814 25.4054 24.9413 25.3884C25.2012 25.3714 25.4446 25.2552 25.6213 25.0638L37.2207 12.4979L39.546 14.0481C39.6919 14.1453 39.8603 14.2031 40.0351 14.216C40.2099 14.2288 40.385 14.1962 40.5434 14.1213C40.7019 14.0464 40.8382 13.9318 40.9393 13.7886C41.0403 13.6454 41.1026 13.4785 41.12 13.3042L42.1356 3.14792C42.1522 2.98186 42.1277 2.81427 42.0641 2.65997C42.0005 2.50567 41.8999 2.36941 41.7711 2.26325C41.6424 2.15709 41.4894 2.08429 41.3258 2.0513C41.1622 2.0183 40.993 2.02613 40.8332 2.07409L30.6769 5.12096C30.4923 5.17635 30.3273 5.28313 30.2011 5.42881C30.0749 5.5745 29.9928 5.75309 29.9643 5.94371C29.9359 6.13433 29.9622 6.32912 30.0403 6.50532C30.1184 6.68152 30.2451 6.83186 30.4054 6.93878L32.475 8.31859L24.7742 16.8752L19.4315 12.4229C19.2414 12.2645 19.0001 12.181 18.7528 12.1879C18.5055 12.1949 18.2692 12.2919 18.0883 12.4607L12.6475 17.5388L14.0334 19.0238L18.8193 14.5569L24.2248 19.0615C24.4266 19.2296 24.6857 19.313 24.9477 19.2942C25.2097 19.2754 25.4542 19.1559 25.6299 18.9607L34.7706 8.80441C34.8681 8.69606 34.9411 8.568 34.9847 8.42893C35.0283 8.28985 35.0415 8.14301 35.0233 7.9984C35.0051 7.85378 34.9561 7.71477 34.8794 7.5908C34.8027 7.46684 34.7003 7.36083 34.579 7.27998L33.3284 6.44623L39.9635 4.4557L39.2669 11.4209L37.6259 10.3269C37.4247 10.1927 37.1823 10.1348 36.9423 10.1634C36.7022 10.192 36.4802 10.3053 36.3162 10.483L24.7836 22.9767L19.4315 18.5166C19.2414 18.3582 19 18.2747 18.7527 18.2816C18.5054 18.2886 18.2692 18.3856 18.0883 18.5544L4.5625 31.1784V27.8632L12.3648 20.581L10.9789 19.096L2.8539 26.6794C2.75209 26.7744 2.67091 26.8894 2.61541 27.0171C2.5599 27.1448 2.53125 27.2826 2.53125 27.4219V33.5156C2.53126 33.7135 2.58908 33.9071 2.69759 34.0726C2.80611 34.2381 2.9606 34.3682 3.14209 34.4471Z" fill="#988F86"/>
</svg>
