<svg width="66" height="65" viewBox="0 0 66 65" fill="none" xmlns="http://www.w3.org/2000/svg">
<path d="M29.359 26.0562H21.9769C20.63 26.0562 19.535 27.1511 19.535 28.498V35.8792C19.535 37.226 20.63 38.322 21.9769 38.322H26.4421C26.3617 38.6989 26.214 39.054 26.0116 39.3366C25.7369 39.7354 25.3868 39.9377 24.9722 39.9377C24.4108 39.9377 23.9566 40.3919 23.9566 40.9533V44.6082C23.9566 45.1695 24.4108 45.6238 24.9722 45.6238C28.7372 45.6238 31.8009 42.5601 31.8009 38.7951V28.498C31.8009 27.1511 30.7059 26.0562 29.359 26.0562ZM29.7696 38.7951C29.7696 41.0922 28.147 43.0173 25.9878 43.4844V41.8063C26.6543 41.5841 27.2355 41.1388 27.6739 40.505C28.2254 39.7334 28.5418 38.7029 28.5418 37.6763V37.3064C28.5418 36.745 28.0875 36.2908 27.5261 36.2908H21.9769C21.7547 36.2908 21.5663 36.1023 21.5663 35.8792V28.498C21.5663 28.2758 21.7547 28.0874 21.9769 28.0874H29.359C29.5812 28.0874 29.7696 28.2758 29.7696 28.498V38.7951Z" fill="#9164AB"/>
<path d="M44.0231 26.0562H36.641C35.2941 26.0562 34.1991 27.1511 34.1991 28.498V35.8792C34.1991 37.226 35.2941 38.322 36.641 38.322H41.1062C41.0268 38.6989 40.879 39.054 40.6777 39.3356C40.401 39.7354 40.0509 39.9377 39.6363 39.9377C39.0749 39.9377 38.6207 40.3919 38.6207 40.9533V44.6082C38.6207 45.1695 39.0749 45.6238 39.6363 45.6238C43.4012 45.6238 46.465 42.5601 46.465 38.7951V28.498C46.465 27.1511 45.37 26.0562 44.0231 26.0562ZM44.4337 38.7951C44.4337 41.0922 42.8111 43.0173 40.6519 43.4844V41.8063C41.3184 41.5841 41.9006 41.1388 42.339 40.504C42.8904 39.7324 43.2058 38.7019 43.2058 37.6763V37.3064C43.2058 36.745 42.7516 36.2908 42.1902 36.2908H36.641C36.4188 36.2908 36.2304 36.1023 36.2304 35.8792V28.498C36.2304 28.2758 36.4188 28.0874 36.641 28.0874H44.0231C44.2453 28.0874 44.4337 28.2758 44.4337 28.498V38.7951Z" fill="#9164AB"/>
<path d="M48.3276 2.03125H25.9442C24.873 2.03125 23.8584 2.4498 23.0798 3.21648L12.1172 14.188C11.3525 14.9517 10.932 15.9703 10.932 17.0534V56.2283C10.932 59.9447 13.956 62.9688 17.6724 62.9688H48.3276C52.044 62.9688 55.068 59.9447 55.068 56.2283V8.77167C55.068 5.05531 52.044 2.03125 48.3276 2.03125ZM13.5534 15.6242L24.51 4.65858C24.638 4.53262 24.7788 4.42551 24.9286 4.33823V14.916C24.9286 15.5349 24.4257 16.0378 23.8068 16.0378H13.235C13.3213 15.888 13.4284 15.7491 13.5534 15.6242ZM53.0368 56.2283C53.0368 58.8249 50.9242 60.9375 48.3276 60.9375H17.6724C15.0758 60.9375 12.9632 58.8249 12.9632 56.2283V18.069H23.8068C25.5455 18.069 26.9598 16.6547 26.9598 14.916V4.0625H48.3276C50.9242 4.0625 53.0368 6.17508 53.0368 8.77167V56.2283Z" fill="#9164AB"/>
</svg>
