<svg width="66" height="65" viewBox="0 0 66 65" fill="none" xmlns="http://www.w3.org/2000/svg">
<g clip-path="url(#clip0_132_6211)">
<path d="M58.6455 3.15771H16.6143C12.9666 3.15771 9.99887 6.09768 9.99887 9.69965L9.728 46.7103H1.52539C0.944079 46.7103 0.5 47.2243 0.5 47.8056V52.8992C0.5 57.6674 4.31579 61.5669 8.92105 61.7808V61.8419H44.3158V61.773C44.5789 61.7838 44.7383 61.8419 44.9192 61.8419H44.9444C49.856 61.8131 53.8152 57.8097 53.7895 52.8981V20.5261H64.4746C65.0559 20.5261 65.5 19.9998 65.5 19.419V10.0733C65.5067 6.275 62.4439 3.18496 58.6455 3.15771ZM9.38158 59.7367H9.37438C5.63004 59.7367 2.60526 56.642 2.60526 52.8981V48.8156H36.0263V52.8807C36.0181 55.2501 36.954 57.525 38.627 59.2026C38.8049 59.3815 38.9909 59.4735 39.1811 59.7367H9.38158ZM51.6842 52.8971C51.6842 56.642 48.6887 59.7367 44.9428 59.7367H44.9212C41.1569 59.7094 38.1228 56.6456 38.1316 52.8812V47.8056C38.1347 47.2161 37.6685 46.7309 37.0789 46.7103H11.8333L12.1041 9.70685C12.1041 7.25876 14.1272 5.26298 16.6143 5.26298H53.6759C52.4762 6.57877 51.6842 8.24355 51.6842 10.1016V52.8971ZM63.3947 10.0918V18.4209H53.7895V10.0995C53.7895 7.46487 55.9811 5.26298 58.6147 5.26298H58.644C61.2843 5.28919 63.4071 7.44328 63.3947 10.0841V10.0918Z" fill="#E98300"/>
<path d="M25.2178 29.0675L30.6449 32.778C30.9991 33.0221 31.4673 33.0221 31.8214 32.778L37.2321 29.0686C39.1117 27.7862 40.5 25.1053 40.5 22.8319V15.3247C40.5113 14.9279 40.2923 14.5599 39.9387 14.3795L31.6755 10.315C31.3856 10.1711 31.0453 10.1711 30.7554 10.315L22.5076 14.3682C22.154 14.5486 21.9355 14.9166 21.9474 15.3134V22.8319C21.9474 25.1053 23.3387 27.7862 25.2178 29.0675ZM24.0526 15.9703L31.2237 12.4321L38.3947 15.9801V22.8319C38.3947 24.4176 37.3555 26.4344 36.0443 27.3282L31.2113 30.6336L26.3974 27.3287C25.0862 26.4339 24.0526 24.4176 24.0526 22.8319V15.9703Z" fill="#E98300"/>
<path d="M29.4433 24.4212C29.6396 24.6216 29.9079 24.7352 30.1885 24.7368H30.1911C30.4707 24.7357 30.7385 24.6237 30.9354 24.4253L35.1227 20.2363C35.5344 19.8252 35.5344 19.158 35.1233 18.7468C34.7126 18.3351 34.0454 18.3351 33.6343 18.7463L30.1947 22.1854L28.8198 20.7971C28.4102 20.3839 27.7435 20.3808 27.3303 20.7904C26.9171 21.2001 26.9145 21.8667 27.3236 22.2799L29.4433 24.4212Z" fill="#E98300"/>
<path d="M44.3158 35.7896H19.0526C18.4713 35.7896 18 36.2609 18 36.8422C18 37.4235 18.4713 37.8948 19.0526 37.8948H44.3158C44.8971 37.8948 45.3684 37.4235 45.3684 36.8422C45.3684 36.2609 44.8971 35.7896 44.3158 35.7896Z" fill="#E98300"/>
<path d="M44.3158 40.6577H19.0526C18.4713 40.6577 18 41.129 18 41.7103C18 42.2917 18.4713 42.763 19.0526 42.763H44.3158C44.8971 42.763 45.3684 42.2917 45.3684 41.7103C45.3684 41.129 44.8971 40.6577 44.3158 40.6577Z" fill="#E98300"/>
</g>
<defs>
<clipPath id="clip0_132_6211">
<rect width="65" height="65" fill="white" transform="translate(0.5)"/>
</clipPath>
</defs>
</svg>
